<svg xmlns="http://www.w3.org/2000/svg" width="1200" height="630" viewBox="0 0 1200 630" font-family="Apple SD Gothic Neo, NanumGothic, Noto Sans KR, Malgun Gothic, sans-serif">
<rect width="1200" height="630" fill="#ffffff"/>
<text x="80" y="52" font-size="38" font-weight="bold" fill="#111827">코스피(KOSPI) 7/28 이후 종가 추이</text>
<text x="80" y="84" font-size="22" fill="#6b7280">2026.07.28 ~ 2026.08.20 · 종가 기준 · 8/20 마감시황</text>
<line x1="80" y1="484.9" x2="1160" y2="484.9" stroke="#e5e7eb" stroke-width="1"/>
<text x="68" y="491.9" font-size="18" fill="#9ca3af" text-anchor="end">5,600</text>
<line x1="80" y1="436.3" x2="1160" y2="436.3" stroke="#e5e7eb" stroke-width="1"/>
<text x="68" y="443.3" font-size="18" fill="#9ca3af" text-anchor="end">5,800</text>
<line x1="80" y1="387.6" x2="1160" y2="387.6" stroke="#e5e7eb" stroke-width="1"/>
<text x="68" y="394.6" font-size="18" fill="#9ca3af" text-anchor="end">6,000</text>
<line x1="80" y1="339.0" x2="1160" y2="339.0" stroke="#e5e7eb" stroke-width="1"/>
<text x="68" y="346.0" font-size="18" fill="#9ca3af" text-anchor="end">6,200</text>
<line x1="80" y1="290.3" x2="1160" y2="290.3" stroke="#e5e7eb" stroke-width="1"/>
<text x="68" y="297.3" font-size="18" fill="#9ca3af" text-anchor="end">6,400</text>
<line x1="80" y1="241.6" x2="1160" y2="241.6" stroke="#e5e7eb" stroke-width="1"/>
<text x="68" y="248.6" font-size="18" fill="#9ca3af" text-anchor="end">6,600</text>
<line x1="80" y1="193.0" x2="1160" y2="193.0" stroke="#e5e7eb" stroke-width="1"/>
<text x="68" y="200.0" font-size="18" fill="#9ca3af" text-anchor="end">6,800</text>
<line x1="80" y1="144.3" x2="1160" y2="144.3" stroke="#e5e7eb" stroke-width="1"/>
<text x="68" y="151.3" font-size="18" fill="#9ca3af" text-anchor="end">7,000</text>
<text x="80.0" y="600" font-size="17" fill="#9ca3af" text-anchor="middle">07.28</text>
<text x="440.0" y="600" font-size="17" fill="#9ca3af" text-anchor="middle">08.03</text>
<text x="800.0" y="600" font-size="17" fill="#9ca3af" text-anchor="middle">08.11</text>
<text x="1160.0" y="600" font-size="17" fill="#9ca3af" text-anchor="middle">08.20</text>
<polygon points="80.0,382.0 157.1,468.8 234.3,486.6 311.4,242.9 388.6,325.1 465.7,300.5 542.9,315.6 620.0,324.9 697.1,303.7 774.3,246.7 851.4,189.7 928.6,149.7 1005.7,176.0 1082.9,273.0 1160.0,180.5 1160.0,533.6 80.0,533.6" fill="url(#grad)" opacity="0.55"/>
<polyline points="80.0,382.0 157.1,468.8 234.3,486.6 311.4,242.9 388.6,325.1 465.7,300.5 542.9,315.6 620.0,324.9 697.1,303.7 774.3,246.7 851.4,189.7 928.6,149.7 1005.7,176.0 1082.9,273.0 1160.0,180.5" fill="none" stroke="#dc2626" stroke-width="4" stroke-linejoin="round" stroke-linecap="round"/>
<circle cx="1160.0" cy="180.5" r="7" fill="#dc2626" stroke="#ffffff" stroke-width="3"/>
<text x="1146.0" y="158.5" font-size="26" font-weight="bold" fill="#dc2626" text-anchor="end">6,852.58</text>
<text x="1146.0" y="186.5" font-size="19" fill="#dc2626" text-anchor="end">▲ 381.41 (+5.89%)</text>
<text x="560" y="565" font-size="17" fill="#6b7280" text-anchor="middle">7/30 저점 5,593 → 8/14 고점 6,977.94 → 8/19 6,471.17 → 8/20 6,852.58</text>
<defs><linearGradient id="grad" x1="0" y1="0" x2="0" y2="1"><stop offset="0%" stop-color="#dc2626" stop-opacity="0.35"/><stop offset="100%" stop-color="#dc2626" stop-opacity="0.02"/></linearGradient></defs>
<text x="80" y="616" font-size="15" fill="#9ca3af">출처: 한국거래소(KRX) 종가 기준 · 본 블로그 작성</text>
</svg>
